<svg width="165" height="192" viewBox="0 0 165 192" fill="none" xmlns="http://www.w3.org/2000/svg">
<path fill-rule="evenodd" clip-rule="evenodd" d="M12.3625 179.466C18.4231 178.828 33.596 179.623 38.973 180.808C42.6081 181.638 43.7814 181.732 44.4108 181.247C47.4829 179.08 40.8979 176.242 29.64 174.797L22.4694 173.896L26.0375 172.897C39.8707 169.023 46.7715 165.288 43.5508 163.311C40.1788 161.215 39.2597 161.301 31.255 164.089C27.1151 165.526 23.5826 166.743 23.476 166.734C23.3693 166.726 24.3217 165.569 25.6725 164.122C32.6611 156.638 33.7696 150.879 27.8679 152.871C25.8268 153.564 21.1692 157.427 15.5658 163.038C13.1695 165.474 8.72939 169.301 5.75532 171.582C-3.40164 178.677 -1.49042 180.923 12.3625 179.466ZM58.2231 161.007C63.1308 159.364 74.1337 153.331 74.6143 152.028C76.1441 147.698 68.8724 147.38 61.7326 151.418C59.0319 152.971 54.8808 155.211 52.4768 156.412C44.5864 160.443 49.1265 164.029 58.2231 161.007ZM85.4542 146.679C90.7376 144.369 100.606 135.776 100.507 133.675C100.263 130.061 94.4469 130.987 89.7506 135.329L82.6214 141.89C80.4237 143.859 78.7639 145.817 78.8404 146.199C79.0785 147.238 83.3958 147.586 85.4542 146.679ZM107.225 126.223C111.634 124.111 117.137 109.103 114.991 105.12C112.233 100.069 106.272 108.119 101.011 124.112C100.314 126.095 104.546 127.509 107.225 126.223ZM92.3417 119.174C99.5287 117.876 100.77 117.118 98.878 115.302C97.431 113.951 93.9704 113.618 90.7797 114.595C86.0534 115.984 73.7088 113.378 72.5669 114.896C70.2746 118.037 83.246 120.855 92.3417 119.174ZM67.846 111.564C68.0403 111.15 68.0541 109.649 67.7928 108.233C66.9882 102.91 69.8302 94.2868 73.812 90.1548C76.8592 86.9669 77.0088 86.4424 75.1775 85.8654C67.5006 83.2608 58.8558 95.9767 60.9361 106.768C61.7011 110.585 66.6224 114.094 67.846 111.564ZM129.412 101.938C135.226 100.368 146.72 83.5897 143.459 81.4488C140.5 79.5468 137.096 81.8474 130.637 90.0719C127.889 93.5522 124.963 97.2328 124.077 98.2344C121.651 101.043 124.801 103.229 129.412 101.938ZM114.018 96.5643C117.685 94.3385 111.722 86.4532 103.348 82.5048C98.0746 80.0404 83.9538 79.4913 82.916 81.7146C82.0106 83.6268 83.8823 84.368 90.7184 84.7586C98.1409 85.1965 100.885 86.4373 103.805 90.8043C107.925 96.9312 110.799 98.558 114.018 96.5643ZM151.784 70.6923C155.839 68.9807 162.09 49.365 159.334 46.9428C155.021 43.2147 151.692 47.2383 148.935 59.4635C146.411 70.7953 146.896 72.7659 151.784 70.6923ZM160.333 36.561C163.545 35.3179 165.105 15.3237 162.225 13.1062C156.916 9.08308 154.201 13.4782 154.224 25.8204C154.276 37.1454 155.071 38.6045 160.333 36.561Z" fill="#3D2100"/>
</svg>
