<svg width="202" height="221" viewBox="0 0 202 221" fill="none" xmlns="http://www.w3.org/2000/svg">
<path fill-rule="evenodd" clip-rule="evenodd" d="M128.32 5.1913C123.075 8.29527 108.95 13.8918 103.568 15.0539C99.9175 15.8134 98.8114 16.216 98.4415 16.9198C96.5509 20.169 103.72 20.0068 114.557 16.6317L121.451 14.4639L118.623 16.8589C107.66 26.1419 102.942 32.4121 106.693 32.8679C110.632 33.3693 111.432 32.9077 117.548 27.0392C120.713 24.009 123.418 21.431 123.518 21.3944C123.619 21.3578 123.235 22.8066 122.61 24.6847C119.373 34.3995 120.764 40.0966 125.3 35.8278C126.866 34.3469 129.492 28.8953 132.249 21.4606C133.414 18.2482 135.856 12.9198 137.61 9.60672C142.98 -0.657009 140.307 -1.90343 128.32 5.1913ZM94.3136 41.073C90.5361 44.6106 83.0458 54.6786 83.1513 56.0629C83.5638 60.6365 90.3074 57.8973 95.1167 51.2524C96.9253 48.7161 99.7662 44.9505 101.452 42.8573C106.946 35.9062 101.325 34.5372 94.3136 41.073ZM75.5242 65.4407C71.6829 69.7414 66.2898 81.6637 67.2544 83.5322C68.9825 86.7163 73.8841 83.4526 76.3451 77.5486L80.0942 68.6149C81.2722 65.9097 81.9655 63.4378 81.737 63.1226C81.0879 62.2775 77.0178 63.7589 75.5242 65.4407ZM64.2513 93.1051C61.1226 96.8618 62.3696 112.799 65.9799 115.525C70.5911 118.969 72.658 109.168 70.7798 92.4363C70.5873 90.3437 66.1513 90.82 64.2513 93.1051ZM80.7178 93.3152C74.7244 97.4885 73.9114 98.695 76.3881 99.5578C78.2662 100.183 81.551 99.0446 84.0451 96.8278C87.7634 93.5964 100.072 90.8239 100.478 88.9687C101.253 85.1579 88.2872 87.9991 80.7178 93.3152ZM106.157 90.0317C106.153 90.4886 106.766 91.8591 107.593 93.0377C110.541 97.5419 111.549 106.566 109.65 111.98C108.207 116.148 108.29 116.687 110.195 116.449C118.259 115.619 120.823 100.459 114.437 91.5142C112.152 88.3622 106.216 87.2217 106.157 90.0317ZM54.1946 124.425C49.5627 128.273 46.1006 148.314 49.9571 148.902C53.4388 149.399 55.5762 145.89 58.0222 135.723C59.0718 131.414 60.199 126.849 60.587 125.57C61.6229 122.005 57.8489 121.33 54.1946 124.425ZM70.4278 122.898C68.021 126.449 76.7264 131.135 85.9834 131.237C91.8044 131.281 104.871 125.899 104.888 123.445C104.915 121.33 102.905 121.436 96.5271 123.928C89.5967 126.621 86.5851 126.636 82.1112 123.882C75.8139 120.027 72.5241 119.745 70.4278 122.898ZM46.8678 162.149C43.8942 165.394 46.3813 185.831 49.8952 186.885C55.3694 188.478 56.7204 183.433 54.1352 171.171C51.7103 159.817 50.4488 158.228 46.8678 162.149ZM53.3113 196.739C50.9087 199.207 57.8181 218.035 61.3594 218.851C67.8616 220.298 68.4998 215.171 63.338 203.96C58.574 193.686 57.2441 192.69 53.3113 196.739Z" fill="#664429"/>
</svg>
