<svg width="36" height="36" viewBox="0 0 36 36" fill="none" xmlns="http://www.w3.org/2000/svg">
<g id="heroicons-solid/check-circle">
<path id="Subtract" fill-rule="evenodd" clip-rule="evenodd" d="M3.375 18C3.375 9.92284 9.92284 3.375 18 3.375C26.0772 3.375 32.625 9.92284 32.625 18C32.625 26.0772 26.0772 32.625 18 32.625C9.92284 32.625 3.375 26.0772 3.375 18ZM23.4154 15.2789C23.7766 14.7733 23.6595 14.0707 23.1539 13.7095C22.6483 13.3484 21.9457 13.4655 21.5845 13.9711L16.7314 20.7655L14.2955 18.3295C13.8562 17.8902 13.1438 17.8902 12.7045 18.3295C12.2652 18.7688 12.2652 19.4812 12.7045 19.9205L16.0795 23.2955C16.3133 23.5293 16.6382 23.6484 16.9678 23.6212C17.2974 23.5939 17.5982 23.423 17.7905 23.1539L23.4154 15.2789Z" fill="#FF8A00"/>
</g>
</svg>
