<svg width="137" height="104" viewBox="0 0 137 104" fill="none" xmlns="http://www.w3.org/2000/svg">
<path fill-rule="evenodd" clip-rule="evenodd" d="M59.2056 103.424C85.0339 100.778 124.343 85.0714 118.841 79.5698C117.12 77.8479 116.196 78.0155 111.786 80.8713C85.0339 98.2163 34.5112 106.112 20.6102 95.1087C17.3764 92.5469 17.4184 92.4205 21.6601 92.8405C35.5612 94.1426 49.5462 91.4126 73.2326 82.8032C123.587 64.5344 150.675 34.0029 128.249 20.5638C116.49 13.5082 89.0656 16.3641 64.6232 26.4434C59.6256 28.5012 60.6335 26.7374 67.0171 23.7136C82.094 16.532 88.0996 15.3557 95.3652 13.1718L98.8509 13.9278C103.891 14.9357 113.34 13.6342 122.873 10.6104C127.031 9.30852 122.747 3.17693 104.479 6.28473C102.505 6.6207 103.387 5.86475 108.174 3.26092C111.954 1.20306 112.122 0.993081 110.61 0.195135C108.426 -0.980786 98.011 3.3865 94.0632 7.16625C92.4674 8.72014 91.5854 9.14054 88.9396 9.85449C66.9751 15.6081 33.1673 34.2548 14.9406 51.0117C-2.19428 66.7607 -4.88211 82.6776 8.389 89.4392C10.2789 90.4051 12.2527 91.917 14.2686 93.9747C22.2061 101.954 39.1309 105.482 59.2056 103.424ZM16.6624 88.5568C10.4049 86.121 18.3843 66.5923 30.6055 54.3291C57.5677 27.3669 122.999 9.35052 128.879 27.1993C135.472 47.19 79.1542 82.5936 31.4455 88.9352C29.3876 89.2292 17.5444 88.9348 16.6624 88.5568ZM5.65919 82.4256C3.60132 75.1601 8.09501 65.8783 17.5024 56.219C20.1062 53.5311 21.9541 54.6651 20.4842 56.4289C5.53319 74.8237 10.0689 86.5409 10.0269 86.8769C8.59899 86.6249 6.24715 84.6515 5.65919 82.4256Z" fill="#3D2100"/>
</svg>
