<svg width="32" height="30" viewBox="0 0 32 30" fill="none" xmlns="http://www.w3.org/2000/svg">
<path id="Vector" d="M28.375 9.76652C29.7011 10.1932 30.625 11.4588 30.625 12.9123V19.3406C30.625 21.0456 29.3539 22.4914 27.6546 22.63C27.1462 22.6715 26.6363 22.7078 26.125 22.7388V27.375L21.625 22.875C19.5944 22.8749 17.5834 22.7922 15.5953 22.6299C15.1479 22.5934 14.7301 22.4662 14.3574 22.2676M28.375 9.76652C28.1479 9.69344 27.909 9.64498 27.6609 9.62438C25.6708 9.45921 23.6577 9.37497 21.6249 9.37497C19.5922 9.37497 17.5792 9.4592 15.5891 9.62437C13.8925 9.76519 12.625 11.2098 12.625 12.9123V19.3405C12.625 20.5965 13.3148 21.7118 14.3574 22.2676M28.375 9.76652V6.95593C28.375 4.52381 26.6474 2.41594 24.2355 2.10283C21.1717 1.7051 18.0475 1.49997 14.8754 1.49997C11.703 1.49997 8.57849 1.70515 5.51445 2.10295C3.10259 2.41609 1.375 4.52394 1.375 6.95604V16.2939C1.375 18.726 3.1026 20.8339 5.51447 21.147C6.37991 21.2594 7.25019 21.3564 8.125 21.4377V28.5L14.3574 22.2676" stroke="#0F172A" stroke-width="1.9375" stroke-linecap="round" stroke-linejoin="round"/>
</svg>
