<svg width="37" height="36" viewBox="0 0 37 36" fill="none" xmlns="http://www.w3.org/2000/svg">
<g id="heroicons-outline/cog-6-tooth">
<g id="Vector">
<path d="M14.8904 5.9102C15.026 5.09651 15.73 4.50012 16.555 4.50012H20.4459C21.2708 4.50012 21.9748 5.09651 22.1104 5.9102L22.4307 7.83177C22.5242 8.39284 22.8992 8.86019 23.3968 9.13566C23.5081 9.19725 23.6181 9.26087 23.7267 9.32648C24.2143 9.62088 24.8073 9.71242 25.3406 9.51261L27.1659 8.82879C27.9384 8.53939 28.8069 8.85088 29.2193 9.56528L31.1648 12.9349C31.5773 13.6493 31.4128 14.5572 30.7759 15.0815L29.2694 16.3217C28.8306 16.6829 28.6131 17.2407 28.6237 17.8089C28.6248 17.8725 28.6254 17.9362 28.6254 18.0001C28.6254 18.064 28.6248 18.1277 28.6237 18.1913C28.6131 18.7595 28.8306 19.3173 29.2694 19.6785L30.7759 20.9187C31.4128 21.443 31.5773 22.3509 31.1648 23.0653L29.2193 26.4349C28.8069 27.1493 27.9384 27.4608 27.1659 27.1714L25.3406 26.4876C24.8073 26.2878 24.2143 26.3793 23.7267 26.6738C23.6181 26.7394 23.5081 26.803 23.3968 26.8646C22.8992 27.1401 22.5242 27.6074 22.4307 28.1685L22.1104 30.09C21.9748 30.9037 21.2708 31.5001 20.4459 31.5001H16.555C15.73 31.5001 15.026 30.9037 14.8904 30.09L14.5702 28.1685C14.4766 27.6074 14.1017 27.1401 13.604 26.8646C13.4928 26.803 13.3828 26.7394 13.2741 26.6738C12.7866 26.3794 12.1936 26.2878 11.6602 26.4876L9.83494 27.1715C9.06246 27.4609 8.19397 27.1494 7.78151 26.435L5.83604 23.0653C5.42358 22.3509 5.58806 21.443 6.22493 20.9187L7.73146 19.6785C8.17022 19.3173 8.38772 18.7595 8.3772 18.1913C8.37602 18.1277 8.37543 18.064 8.37543 18.0001C8.37543 17.9363 8.37602 17.8725 8.37719 17.8089C8.38772 17.2407 8.17022 16.683 7.73146 16.3218L6.22493 15.0815C5.58806 14.5572 5.42358 13.6494 5.83604 12.935L7.78151 9.56531C8.19397 8.85091 9.06246 8.53941 9.83494 8.82881L11.6602 9.51262C12.1936 9.71243 12.7866 9.6209 13.2741 9.32649C13.3828 9.26088 13.4928 9.19725 13.604 9.13566C14.1017 8.86019 14.4766 8.39284 14.5702 7.83177L14.8904 5.9102Z" stroke="#0F172A" stroke-width="1.75" stroke-linecap="round" stroke-linejoin="round"/>
<path d="M23.0001 18C23.0001 20.4853 20.9854 22.5 18.5001 22.5C16.0148 22.5 14.0001 20.4853 14.0001 18C14.0001 15.5147 16.0148 13.5 18.5001 13.5C20.9854 13.5 23.0001 15.5147 23.0001 18Z" stroke="#0F172A" stroke-width="1.75" stroke-linecap="round" stroke-linejoin="round"/>
</g>
</g>
</svg>
