<svg width="36" height="36" viewBox="0 0 36 36" fill="none" xmlns="http://www.w3.org/2000/svg">
<g id="Arhive_alt_export">
<path id="Rectangle 2" d="M31.5 18H27.061C26.2968 18 25.9148 18 25.5924 18.1726C25.2699 18.3451 25.058 18.663 24.6341 19.2988L23.3659 21.2012C22.942 21.837 22.7301 22.1549 22.4076 22.3274C22.0852 22.5 21.7032 22.5 20.939 22.5H15.061C14.2968 22.5 13.9148 22.5 13.5924 22.3274C13.2699 22.1549 13.058 21.837 12.6341 21.2012L11.3659 19.2988C10.942 18.663 10.7301 18.3451 10.4076 18.1726C10.0852 18 9.70316 18 8.93905 18H4.5" stroke="#33363F" stroke-width="2.91667"/>
<path id="Vector 10" d="M12.75 12L18 7.5M18 7.5L23.25 12M18 7.5L18 18" stroke="#33363F" stroke-width="2.91667"/>
<path id="Rectangle 1" d="M7.5 13.5L4.92714 16.0729C4.65365 16.3464 4.5 16.7173 4.5 17.1041V25.5833C4.5 27.1942 5.80584 28.5 7.41667 28.5H28.5833C30.1942 28.5 31.5 27.1942 31.5 25.5833V17.1041C31.5 16.7173 31.3464 16.3464 31.0729 16.0729L28.5 13.5" stroke="#33363F" stroke-width="2.91667" stroke-linecap="round"/>
</g>
</svg>
