<svg width="126" height="113" viewBox="0 0 126 113" fill="none" xmlns="http://www.w3.org/2000/svg">
<path d="M19.9015 53.9555C17.3272 54.0611 17.7343 59.9634 21.5567 79.1134C25.6161 99.3819 27.2491 103.705 30.1095 102.533C34.0231 100.872 24.0692 53.8918 19.9015 53.9555Z" fill="#664429"/>
<path d="M107.663 28.8726C106.799 21.2115 105.375 20.3745 87.9929 17.2734C70.0435 14.0516 66.65 14.102 65.7677 17.4157C64.1924 23.4308 68.6722 25.8074 90.675 30.8996C106.91 34.6472 108.301 34.5272 107.663 28.8726Z" fill="#664429"/>
<path d="M86.1004 74.1986C85.552 68.6816 84.2312 66.7986 76.9685 61.0413C55.3597 44.0452 41.2726 30.1906 42.5553 40.9079C43.049 45.2856 46.7403 48.8596 71.3554 69.5807C85.0169 80.9709 86.7856 81.5843 86.1004 74.1986Z" fill="#664429"/>
</svg>
