<svg width="126" height="114" viewBox="0 0 126 114" fill="none" xmlns="http://www.w3.org/2000/svg">
<path d="M105.42 57.588C107.989 57.3926 107.377 51.5081 102.888 32.5032C98.1239 12.3886 96.341 8.12488 93.5233 9.39635C89.6699 11.1925 101.257 57.7971 105.42 57.588Z" fill="#664429"/>
<path d="M18.5877 85.7184C19.7185 93.3447 21.1713 94.1315 38.6506 96.6241C56.7015 99.2175 60.0912 99.0487 60.8573 95.7062C62.2217 89.6398 57.6617 87.421 35.4946 83.0998C19.1384 79.921 17.753 80.0895 18.5877 85.7184Z" fill="#664429"/>
<path d="M38.5554 39.6675C39.2959 45.162 40.6816 46.9977 48.1408 52.4981C70.3297 68.7297 84.8916 82.0843 83.2357 71.4182C82.5895 67.0604 78.7758 63.6174 53.4525 43.768C39.4018 32.8615 37.6128 32.3102 38.5554 39.6675Z" fill="#664429"/>
</svg>
